<mxfile host="app.diagrams.net" modified="2024-03-24T09:12:03.803Z" agent="Mozilla/5.0 (Windows NT 10.0; Win64; x64) AppleWebKit/537.36 (KHTML, like Gecko) Chrome/109.0.0.0 Safari/537.36 SLBrowser/9.0.3.1311 SLBChan/33" version="24.1.0" etag="NJ8h65hAg7jNNb86mDm2" type="github">
  <diagram name="第 1 页" id="DZsEi-zr_hT8eZahCrEq">
    <mxGraphModel>
      <root>
        <mxCell id="0" />
        <mxCell id="1" parent="0" />
      </root>
    </mxGraphModel>
  </diagram>
</mxfile>
